<?xml version="1.0" standalone="no"?><!DOCTYPE svg PUBLIC "-//W3C//DTD SVG 1.1//EN" "http://www.w3.org/Graphics/SVG/1.1/DTD/svg11.dtd"><svg class="icon" width="200px" height="177.78px" viewBox="0 0 1152 1024" version="1.1" xmlns="http://www.w3.org/2000/svg"><path fill="#1296db" d="M1116.381957 667.069713c-39.392306-35.393087-98.780707-35.193126-139.772701-2.399531l-123.175942 98.580746c-3.799258 2.999414-8.39836 4.599102-13.397384 4.599101h-83.183753c9.198203-19.196251 12.997461-41.391916 9.598126-64.587385-7.998438-55.789104-59.18844-95.381371-115.577427-95.381371H362.529194c-41.591877 0-81.983988 13.397383-115.177505 38.392502L170.566686 703.862527H15.996876c-8.798282 0-15.996876 7.198594-15.996876 15.996875v31.993752c0 8.798282 7.198594 15.996876 15.996876 15.996875h175.965631l93.781684-70.386252c22.195665-16.596758 49.190393-25.595001 76.785003-25.595001H655.8719c26.594806 0 47.990627 21.395821 47.990627 47.990626s-21.395821 47.990627-47.990627 47.990627h-175.965632c-17.596563 0-31.993751 14.397188-31.993751 31.993752s14.397188 31.993751 31.993751 31.993751h360.329623c19.396212 0 38.192541-6.598711 53.389573-18.596368l123.175942-98.380785c15.396993-12.197618 39.992189-15.197032 56.788908 0 20.196055 18.196446 18.596368 48.990432-1.799648 65.187268l-201.560633 161.368483c-15.197032 12.197618-33.993361 18.596368-53.389572 18.596368H15.996876c-8.798282 0-15.996876 7.198594-15.996876 15.996875v31.993751c0 8.798282 7.198594 15.996876 15.996876 15.996876h800.843585c33.993361 0 66.786956-11.597735 93.1818-32.793595L1111.782855 829.837922c24.395235-19.596173 38.992384-48.790471 39.992189-79.984378s-11.997657-61.587971-35.393087-82.783831z m-565.889475-166.167545c13.997266 14.79711 36.792814 14.79711 50.990041 0l217.757469-228.155439c63.187659-66.387034 59.588362-176.165593-11.197813-237.353642-70.586214-61.188049-162.768209-33.993361-209.759031 15.396993L575.887522 73.98555l-22.195665-23.19547c-45.991017-48.190588-138.572935-77.184925-209.759031-15.396993-70.586214 61.188049-74.385472 171.166569-11.197813 237.353642l217.757469 228.155439zM384.724858 83.783636c41.591877-35.99297 96.381176-17.396602 123.775825 11.397774L575.887522 165.767624l67.386838-70.586214c26.994728-28.194493 81.983988-47.390744 123.775826-11.397774 47.590705 41.191955 40.392111 108.978715 6.798672 144.171841l-197.961336 207.559461L377.926186 227.955477c-33.393478-34.793204-40.592072-102.979887 6.798672-144.171841z" /></svg>