<?xml version="1.0" standalone="no"?><!DOCTYPE svg PUBLIC "-//W3C//DTD SVG 1.1//EN" "http://www.w3.org/Graphics/SVG/1.1/DTD/svg11.dtd"><svg class="icon" width="200px" height="175.04px" viewBox="0 0 1170 1024" version="1.1" xmlns="http://www.w3.org/2000/svg"><path fill="#ffffff" d="M38.985143 277.942857A273.042286 273.042286 0 0 1 312.100571 4.900571h546.084572A273.042286 273.042286 0 0 1 1131.300571 277.942857c0 43.154286-34.962286 78.043429-78.043428 78.043429h-170.642286c-31.305143 0-59.538286-18.724571-71.753143-47.542857l-21.284571-50.102858a38.985143 38.985143 0 0 0-35.913143-23.771428H416.621714a38.985143 38.985143 0 0 0-35.84 23.771428l-21.284571 50.102858c-12.288 28.818286-40.521143 47.542857-71.826286 47.542857H117.028571C73.874286 355.986286 38.985143 321.024 38.985143 277.942857z m273.115428-195.072A195.072 195.072 0 0 0 117.028571 277.942857h170.642286l21.211429-50.102857a117.028571 117.028571 0 0 1 107.812571-71.241143h336.896a117.028571 117.028571 0 0 1 107.812572 71.241143l21.211428 50.102857H1053.257143a195.072 195.072 0 0 0-195.072-195.072H312.100571zM474.697143 277.942857h220.745143a117.028571 117.028571 0 0 1 102.034285 59.684572l230.619429 409.965714c58.514286 104.009143-16.676571 232.521143-136.045714 232.521143H278.162286c-119.369143 0-194.56-128.512-136.045715-232.594286l230.619429-409.965714A117.028571 117.028571 0 0 1 474.770286 277.942857z m0 78.043429a38.985143 38.985143 0 0 0-34.011429 19.894857l-230.619428 409.965714c-29.257143 51.931429 8.338286 116.297143 68.022857 116.297143h613.961143c59.684571 0 97.28-64.365714 68.022857-116.297143L729.526857 375.881143a38.985143 38.985143 0 0 0-34.011428-19.894857H474.770286zM585.142857 590.043429A78.043429 78.043429 0 1 1 585.142857 746.057143a78.043429 78.043429 0 0 1 0-156.013714zM429.129143 668.013714a156.013714 156.013714 0 1 0 312.027428 0 156.013714 156.013714 0 0 0-312.027428 0z"  /></svg>